<?xml version="1.0" standalone="no"?>
<!DOCTYPE svg PUBLIC "-//W3C//DTD SVG 20010904//EN"
 "http://www.w3.org/TR/2001/REC-SVG-20010904/DTD/svg10.dtd">
<svg version="1.0" xmlns="http://www.w3.org/2000/svg"
 width="1181.000000pt" height="1181.000000pt" viewBox="0 0 1181.000000 1181.000000"
 preserveAspectRatio="xMidYMid meet">
<metadata>
Created by potrace 1.14, written by Peter Selinger 2001-2017
</metadata>
<g transform="translate(0.000000,1181.000000) scale(0.100000,-0.100000)"
fill="#000000" stroke="none">
<path d="M5802 11615 c-74 -21 -96 -33 -287 -161 -216 -144 -275 -168 -400
-162 -79 4 -115 13 -305 77 -196 67 -222 73 -300 74 -155 3 -217 -41 -454
-319 -73 -86 -161 -163 -219 -192 -77 -38 -145 -45 -312 -33 -224 18 -355 16
-417 -5 -125 -41 -182 -109 -312 -374 -146 -298 -213 -357 -469 -405 -316 -60
-397 -88 -470 -161 -72 -72 -103 -159 -151 -415 -61 -322 -97 -367 -421 -528
-241 -119 -300 -163 -346 -257 -41 -83 -47 -170 -30 -424 23 -325 -4 -389
-250 -601 -159 -136 -235 -219 -268 -289 -22 -46 -26 -69 -25 -141 1 -77 7
-102 62 -265 77 -227 92 -286 92 -366 0 -105 -29 -171 -166 -375 -148 -221
-169 -268 -168 -378 0 -110 24 -164 156 -361 142 -213 171 -274 176 -379 5
-95 -7 -149 -77 -345 -89 -248 -98 -335 -46 -448 37 -80 80 -129 229 -257 284
-243 308 -297 285 -636 -29 -435 -1 -487 352 -664 218 -109 259 -135 321 -204
54 -60 88 -145 113 -281 56 -306 91 -407 166 -475 74 -67 168 -99 438 -150
210 -40 298 -84 376 -190 20 -27 79 -136 131 -242 82 -167 103 -202 157 -257
108 -111 171 -122 567 -102 302 15 342 -5 610 -317 221 -258 319 -278 693
-144 327 118 391 109 694 -99 67 -47 157 -101 200 -122 73 -34 84 -37 168 -37
122 1 160 18 389 170 311 206 338 209 766 58 125 -44 142 -47 235 -47 91 -1
105 1 155 28 61 32 179 146 312 302 90 106 177 174 251 196 43 13 172 15 482
8 182 -4 225 5 299 62 67 51 117 126 222 337 84 169 104 202 158 256 74 73
138 102 301 135 333 66 383 82 456 148 86 77 116 157 174 459 35 185 64 253
141 330 54 55 83 72 240 149 288 140 364 200 402 323 14 46 16 83 12 211 -2
85 -4 223 -5 305 0 141 2 153 26 205 37 79 104 155 222 253 135 112 228 210
263 277 27 51 29 63 28 155 -1 96 -3 107 -72 310 -121 357 -115 399 95 708 53
78 110 171 127 207 28 58 31 75 31 160 0 89 -2 100 -36 170 -20 41 -83 145
-141 231 -134 198 -153 243 -152 369 1 88 5 106 53 245 77 222 101 312 101
382 0 128 -62 223 -254 387 -300 257 -317 300 -285 723 14 178 4 268 -39 346
-45 83 -107 128 -326 238 -225 114 -290 158 -339 232 -47 70 -62 120 -107 342
-54 272 -88 348 -184 414 -57 40 -195 85 -321 106 -241 39 -336 76 -422 164
-44 45 -71 88 -153 256 -196 398 -240 421 -726 385 -278 -21 -355 13 -551 244
-177 208 -275 285 -383 301 -68 10 -170 -11 -330 -66 -233 -81 -273 -91 -372
-87 -78 4 -95 8 -170 45 -46 23 -135 78 -198 123 -161 114 -256 160 -345 165
-45 3 -89 0 -123 -10z m498 -650 c964 -74 1862 -416 2655 -1010 188 -140 299
-237 493 -429 241 -237 396 -418 578 -672 532 -744 843 -1594 925 -2529 16
-181 16 -662 0 -835 -99 -1077 -491 -2023 -1182 -2850 -207 -249 -541 -565
-816 -772 -722 -545 -1559 -883 -2447 -988 -539 -63 -1053 -45 -1581 56 -1027
197 -1981 723 -2711 1495 -360 380 -651 801 -880 1274 -287 593 -446 1190
-495 1860 -15 205 -6 680 16 880 101 923 445 1795 992 2518 280 369 658 746
1018 1012 527 391 1123 679 1735 839 337 88 616 132 1010 159 131 9 528 5 690
-8z"/>
<path d="M5745 10623 c-69 -5 -85 -15 -85 -54 0 -49 33 -62 154 -57 67 2 109
8 120 17 24 20 20 67 -6 85 -22 16 -46 17 -183 9z"/>
<path d="M6126 10607 c-22 -16 -24 -63 -5 -83 17 -16 213 -35 246 -23 24 9 39
48 29 74 -8 23 -41 32 -151 39 -77 5 -105 3 -119 -7z"/>
<path d="M5285 10588 c-38 -5 -78 -17 -87 -25 -24 -21 -23 -56 2 -78 18 -17
28 -17 127 -5 118 13 143 26 143 71 0 49 -38 57 -185 37z"/>
<path d="M6600 10550 c-25 -25 -25 -42 -2 -68 21 -26 216 -66 244 -51 32 17
41 48 24 75 -17 25 -19 26 -145 49 -103 19 -97 19 -121 -5z"/>
<path d="M4833 10506 c-51 -13 -99 -29 -108 -36 -21 -17 -16 -69 7 -84 27 -17
227 27 251 55 22 28 22 44 -3 69 -25 25 -32 24 -147 -4z"/>
<path d="M7070 10450 c-45 -45 -13 -81 105 -114 49 -15 102 -26 117 -26 48 0
66 68 26 94 -22 13 -195 66 -217 66 -6 0 -20 -9 -31 -20z"/>
<path d="M4385 10379 c-49 -17 -100 -37 -112 -45 -41 -26 -23 -94 25 -94 28 0
198 56 220 73 20 16 14 64 -10 81 -28 20 -17 21 -123 -15z"/>
<path d="M7527 10302 c-22 -24 -22 -55 1 -75 20 -18 188 -87 212 -87 22 0 50
32 50 57 0 29 -24 45 -123 86 -101 42 -117 44 -140 19z"/>
<path d="M3926 10195 c-55 -25 -104 -49 -109 -54 -14 -14 -12 -58 3 -76 20
-24 59 -16 160 33 88 43 95 49 98 79 2 23 -3 35 -20 47 -12 9 -25 16 -28 16
-3 0 -50 -20 -104 -45z"/>
<path d="M7962 10108 c-7 -7 -12 -25 -12 -40 0 -31 29 -53 143 -109 75 -37
113 -35 123 8 10 39 -4 53 -102 105 -90 48 -130 58 -152 36z"/>
<path d="M3492 9969 c-45 -27 -89 -61 -98 -74 -15 -23 -15 -27 0 -50 11 -16
26 -25 42 -25 25 0 191 92 206 114 15 22 8 65 -11 76 -32 17 -52 11 -139 -41z"/>
<path d="M8397 9879 c-28 -16 -39 -46 -27 -70 13 -23 184 -139 206 -139 16 0
54 35 54 51 0 25 -26 52 -95 99 -89 60 -115 71 -138 59z"/>
<path d="M5820 9771 c0 -5 -25 -13 -55 -16 -30 -4 -52 -11 -50 -16 3 -4 -7
-15 -22 -23 -15 -8 -24 -15 -18 -16 5 0 -6 -8 -25 -19 -19 -10 -37 -26 -39
-36 -2 -10 -13 -27 -25 -36 -18 -15 -33 -17 -98 -12 -58 4 -83 2 -100 -9 -13
-8 -38 -15 -57 -16 -19 -2 -42 -11 -51 -22 -10 -11 -21 -20 -26 -20 -13 0 -94
-76 -94 -88 0 -6 -6 -17 -13 -24 -7 -7 -19 -38 -26 -68 -7 -30 -16 -59 -19
-65 -10 -17 -11 -55 -1 -60 5 -4 9 -21 9 -40 0 -19 5 -37 10 -40 6 -3 10 -15
10 -26 0 -27 26 -54 34 -36 3 6 3 2 1 -9 -4 -16 5 -33 36 -63 23 -23 46 -41
51 -41 5 0 16 -7 24 -15 9 -8 24 -15 34 -15 13 0 17 -5 14 -15 -4 -11 1 -15
17 -15 67 -1 67 1 68 -143 1 -72 4 -134 6 -137 3 -4 24 -10 47 -14 24 -4 66
-12 93 -17 49 -10 236 -23 305 -22 156 2 240 7 240 13 0 7 124 20 193 20 51 0
57 16 57 158 0 141 0 142 60 142 20 0 31 6 35 20 4 11 10 18 15 15 5 -3 15 2
23 10 9 8 20 15 25 15 15 0 89 76 97 99 3 12 11 21 16 21 5 0 9 11 9 25 0 14
5 25 10 25 6 0 10 16 10 35 0 19 5 35 10 35 6 0 10 17 8 40 -1 22 -6 40 -10
40 -4 0 -8 16 -8 35 0 19 -4 35 -10 35 -5 0 -10 11 -10 25 0 14 -6 25 -13 25
-8 0 -14 6 -14 14 0 20 -75 105 -93 106 -9 0 -22 9 -30 20 -8 11 -25 20 -37
20 -13 0 -23 4 -23 9 0 12 -9 13 -136 15 -79 1 -104 5 -117 18 -9 9 -17 22
-17 28 0 11 -56 70 -66 70 -3 0 -14 9 -25 19 -22 20 -83 36 -99 26 -6 -4 -13
1 -16 9 -5 12 -21 16 -65 16 -32 0 -59 -4 -59 -9z m156 -96 c10 -8 25 -15 32
-15 18 0 92 -77 92 -95 0 -8 5 -15 10 -15 6 0 10 -9 10 -20 0 -11 5 -20 10
-20 6 0 10 -9 10 -19 0 -15 5 -19 22 -16 12 3 25 10 29 17 5 8 43 14 107 16
82 4 101 1 115 -12 9 -10 23 -16 30 -14 17 4 77 -58 77 -78 0 -8 5 -14 10 -14
6 0 10 -7 10 -16 0 -10 6 -14 14 -11 10 4 13 1 9 -9 -3 -8 0 -21 6 -28 14 -16
13 -146 -1 -146 -4 0 -8 -9 -8 -20 0 -11 -4 -20 -10 -20 -5 0 -10 -7 -10 -15
0 -8 -5 -15 -11 -15 -5 0 -7 -4 -4 -10 3 -5 1 -10 -4 -10 -6 0 -11 -5 -11 -11
0 -15 -26 -39 -44 -39 -8 0 -18 -9 -21 -20 -4 -12 -15 -20 -28 -20 -12 0 -44
-7 -71 -15 -28 -9 -54 -11 -60 -6 -19 15 -56 20 -57 8 0 -8 -2 -8 -6 1 -2 6
-10 12 -17 12 -6 0 -18 9 -26 20 -8 11 -20 20 -27 20 -7 0 -13 4 -13 9 0 5 -9
13 -20 16 -11 3 -20 13 -20 21 0 9 -7 22 -15 30 -8 9 -15 32 -15 52 0 25 -3
32 -9 23 -6 -9 -11 -10 -15 -2 -4 6 -5 15 -2 19 3 5 -1 9 -9 9 -8 0 -15 -4
-15 -9 0 -4 -6 -8 -14 -8 -8 0 -16 -5 -18 -11 -4 -13 -149 -18 -203 -7 -22 5
-45 15 -51 23 -12 16 -29 21 -19 6 3 -5 -2 -16 -10 -24 -8 -9 -15 -25 -15 -36
0 -11 -7 -26 -15 -35 -8 -8 -15 -21 -15 -30 0 -8 -9 -18 -20 -21 -11 -3 -20
-11 -20 -16 0 -5 -5 -9 -11 -9 -7 0 -19 -8 -28 -19 -9 -10 -34 -22 -56 -26
-57 -10 -135 -12 -135 -3 0 5 -11 8 -25 8 -14 0 -34 9 -45 20 -11 11 -27 20
-35 20 -8 0 -15 5 -15 11 0 5 -5 7 -10 4 -6 -4 -13 7 -16 24 -4 17 -10 31 -15
31 -5 0 -9 7 -9 15 0 8 -3 15 -7 15 -5 0 -14 12 -20 27 -15 32 -17 163 -3 163
6 0 10 7 10 15 0 8 4 15 9 15 5 0 11 8 15 18 12 36 48 82 65 82 5 0 17 10 25
22 15 21 23 23 119 22 114 -1 137 -4 137 -16 0 -4 10 -8 23 -8 16 0 26 9 35
33 26 62 35 77 54 83 10 3 18 9 18 13 0 18 37 49 68 55 17 4 32 12 32 17 0 16
154 11 176 -6z m-526 -135 c0 -5 -9 -10 -20 -10 -11 0 -20 5 -20 10 0 6 9 10
20 10 11 0 20 -4 20 -10z m440 -461 c8 0 39 3 69 7 38 5 52 4 47 -4 -3 -6 1
-17 9 -24 16 -13 50 -46 72 -70 21 -23 37 -34 71 -48 17 -8 32 -18 32 -22 0
-5 10 -8 23 -8 44 0 49 -12 49 -109 0 -64 -5 -95 -14 -105 -14 -14 -175 -28
-343 -30 -38 -1 -73 -5 -76 -10 -4 -5 -13 -5 -20 0 -8 5 -45 9 -84 11 -113 3
-199 15 -214 30 -9 10 -15 41 -16 91 -2 101 6 122 45 122 16 0 30 5 30 10 0 6
5 10 10 10 11 0 87 47 108 67 6 6 12 16 12 22 0 6 10 16 23 22 12 7 29 21 37
31 13 16 23 18 65 13 28 -4 57 -7 65 -6z m-480 -139 c0 -5 -4 -10 -10 -10 -5
0 -10 5 -10 10 0 6 5 10 10 10 6 0 10 -4 10 -10z"/>
<path d="M3109 9714 c-125 -91 -146 -126 -94 -160 32 -21 45 -16 148 61 84 63
101 93 72 125 -28 30 -57 24 -126 -26z"/>
<path d="M8766 9581 c-27 -30 -13 -54 77 -131 91 -78 125 -88 152 -46 23 34 7
60 -83 134 -82 67 -116 77 -146 43z"/>
<path d="M2717 9393 c-41 -38 -79 -77 -85 -89 -15 -31 6 -68 41 -72 40 -5 197
137 197 177 0 34 -17 51 -51 51 -20 0 -48 -19 -102 -67z"/>
<path d="M9143 9280 c-32 -13 -39 -53 -15 -87 31 -43 149 -153 164 -153 27 0
58 31 58 59 0 21 -19 46 -84 109 -46 45 -87 82 -92 81 -5 0 -19 -4 -31 -9z"/>
<path d="M2442 9114 c-12 -8 -49 -47 -82 -85 -44 -51 -60 -77 -60 -99 0 -31
22 -50 58 -50 24 0 172 165 172 192 0 21 -34 58 -53 58 -7 0 -23 -7 -35 -16z"/>
<path d="M9458 8919 c-36 -20 -22 -63 50 -151 53 -64 74 -84 97 -86 32 -4 55
18 55 53 0 11 -32 60 -70 108 -72 89 -92 100 -132 76z"/>
<path d="M2120 8730 c-15 -16 -49 -61 -76 -100 -47 -69 -48 -72 -33 -98 10
-19 24 -28 45 -30 29 -3 36 4 98 89 69 97 78 125 48 152 -27 25 -50 21 -82
-13z"/>
<path d="M9753 8540 c-48 -20 -38 -58 49 -190 32 -49 50 -66 69 -68 31 -4 59
21 59 51 0 43 -121 219 -148 216 -4 0 -17 -4 -29 -9z"/>
<path d="M5590 8502 c-88 -6 -183 -48 -248 -109 -29 -28 -82 -104 -88 -128 -3
-14 -10 -28 -15 -31 -5 -3 -9 -14 -9 -25 0 -10 -4 -27 -9 -37 -33 -65 -41
-344 -15 -527 26 -182 68 -389 84 -417 6 -10 10 -25 10 -35 0 -9 4 -30 10 -47
5 -17 25 -83 45 -146 19 -63 42 -131 49 -150 7 -19 19 -53 25 -75 7 -22 16
-49 21 -60 4 -11 20 -56 34 -100 27 -79 40 -113 57 -147 5 -10 9 -23 9 -29 0
-11 21 -63 71 -177 l19 -42 243 2 242 3 17 35 c21 46 40 92 83 210 16 41 36
93 46 115 9 22 25 65 34 95 9 30 20 64 25 75 5 11 20 58 35 105 14 47 30 94
34 105 5 11 14 40 21 65 7 25 18 65 25 90 7 25 18 65 25 90 7 25 16 56 20 70
5 14 14 54 20 90 7 36 16 85 21 110 38 176 52 346 44 494 -4 66 -11 127 -15
135 -5 9 -18 48 -30 88 -11 39 -27 77 -35 83 -8 7 -15 16 -15 21 0 10 -43 73
-61 91 -20 18 -45 33 -104 64 -48 26 -58 27 -305 35 -140 5 -284 10 -320 12
-36 1 -81 1 -100 -1z m53 -129 c3 -5 -6 -24 -19 -43 -86 -126 -114 -174 -114
-195 0 -9 -4 -23 -10 -33 -35 -63 -54 -284 -40 -462 19 -245 44 -370 140 -705
5 -16 14 -48 20 -70 19 -69 102 -307 131 -376 49 -121 46 -155 -16 -147 -22 2
-30 12 -46 58 -10 30 -23 65 -29 78 -17 38 -28 65 -46 117 -9 28 -21 54 -26
59 -4 6 -8 20 -8 32 0 13 -4 26 -10 29 -5 3 -10 15 -10 26 0 10 -4 27 -9 37
-6 9 -25 64 -44 122 -31 96 -48 153 -78 265 -6 22 -15 49 -19 60 -5 11 -11 31
-13 45 -3 14 -13 57 -22 95 -36 149 -55 275 -65 415 -12 182 -3 299 30 385 38
102 102 175 174 201 36 13 123 18 129 7z m630 -25 c41 -23 108 -93 124 -128
26 -59 31 -74 39 -105 13 -51 10 -463 -4 -535 -6 -36 -16 -87 -21 -115 -6 -27
-17 -81 -26 -120 -10 -38 -19 -85 -22 -103 -3 -18 -9 -35 -14 -38 -5 -3 -9
-18 -9 -34 0 -16 -4 -32 -10 -35 -5 -3 -10 -14 -10 -24 0 -42 -126 -414 -221
-656 -42 -105 -46 -110 -75 -113 -50 -5 -61 18 -39 86 9 31 26 75 35 97 35 77
160 466 160 496 0 8 4 19 9 24 5 6 14 35 21 65 7 30 17 73 22 95 5 22 13 60
18 85 5 25 14 68 20 95 30 142 43 391 29 540 -14 138 -67 288 -130 364 -46 56
-40 71 26 71 30 0 65 -6 78 -12z m-274 -49 c40 -20 102 -95 123 -147 6 -15 14
-36 19 -47 34 -81 43 -155 43 -340 -1 -104 -6 -221 -13 -260 -38 -226 -43
-251 -84 -405 -36 -134 -62 -219 -92 -295 -9 -22 -18 -48 -22 -57 -8 -25 -19
-22 -27 5 -8 29 -8 1531 0 1551 8 20 5 20 53 -5z m-182 -777 c1 -422 -1 -775
-3 -784 -3 -10 -9 -18 -14 -18 -8 0 -45 93 -71 175 -6 22 -15 49 -20 60 -4 11
-20 70 -34 130 -14 61 -30 126 -35 145 -59 228 -86 627 -50 755 35 126 47 156
80 205 56 82 115 129 135 109 6 -7 11 -281 12 -777z"/>
<path d="M1857 8336 c-13 -14 -43 -62 -67 -109 -43 -83 -44 -85 -27 -111 21
-31 56 -34 81 -7 32 35 108 176 108 200 1 50 -59 67 -95 27z"/>
<path d="M9988 8119 c-29 -16 -21 -58 30 -153 52 -98 66 -112 105 -102 45 11
45 47 1 139 -61 125 -85 146 -136 116z"/>
<path d="M1644 7926 c-11 -8 -40 -60 -63 -115 -42 -97 -43 -101 -27 -126 18
-27 66 -35 83 -12 15 18 93 198 93 213 0 18 -36 54 -53 54 -7 0 -22 -6 -33
-14z"/>
<path d="M10191 7684 c-29 -21 -26 -45 19 -162 33 -86 63 -119 98 -108 10 4
24 17 30 31 10 20 5 40 -25 122 -20 54 -41 103 -47 109 -20 21 -51 24 -75 8z"/>
<path d="M1456 7474 c-14 -14 -76 -193 -76 -220 0 -19 35 -44 63 -44 32 0 44
20 82 147 27 90 28 94 10 113 -22 24 -58 26 -79 4z"/>
<path d="M10348 7228 c-26 -21 -26 -39 3 -148 34 -126 56 -150 107 -114 28 19
28 41 -3 156 -24 91 -42 118 -75 118 -9 0 -23 -6 -32 -12z"/>
<path d="M1327 7018 c-17 -14 -57 -161 -57 -214 0 -51 45 -79 84 -51 17 13 56
161 58 221 2 46 -48 72 -85 44z"/>
<path d="M10446 6751 c-17 -18 -17 -25 -1 -128 10 -62 24 -115 33 -125 20 -24
55 -23 77 2 18 20 18 25 2 133 -18 117 -28 137 -72 137 -12 0 -30 -9 -39 -19z"/>
<path d="M1242 6543 c-17 -14 -23 -38 -32 -117 -7 -54 -9 -109 -6 -122 9 -34
51 -49 81 -30 23 15 28 36 41 182 6 67 5 72 -17 88 -30 20 -42 20 -67 -1z"/>
<path d="M10511 6283 c-23 -16 -24 -18 -17 -131 5 -86 10 -120 23 -134 21 -24
48 -23 74 3 21 21 21 28 15 133 -4 66 -12 116 -19 122 -22 22 -52 24 -76 7z"/>
<path d="M5650 6055 l0 -45 75 -2 c41 0 100 -1 130 -1 30 0 98 1 150 1 l95 2
0 45 0 45 -225 0 -225 0 0 -45z"/>
<path d="M1200 6060 c-17 -17 -20 -33 -20 -125 0 -99 2 -107 25 -130 29 -30
36 -31 66 -6 23 18 24 25 24 136 0 104 -2 118 -19 131 -27 19 -52 18 -76 -6z"/>
<path d="M5783 5858 c-27 -13 -53 -65 -53 -105 0 -15 9 -46 19 -69 20 -44 130
-178 159 -193 15 -8 34 4 99 59 98 85 143 148 143 203 0 46 -24 91 -57 106
-36 17 -115 13 -142 -5 -22 -16 -25 -16 -51 0 -31 18 -84 20 -117 4z"/>
<path d="M5454 5810 c-51 -20 -71 -108 -40 -169 38 -73 216 -189 216 -140 0 6
16 47 35 90 42 96 47 162 14 203 -23 29 -72 35 -104 12 -15 -11 -22 -11 -44 0
-29 16 -47 17 -77 4z"/>
<path d="M6209 5810 c-48 -28 -48 -106 0 -218 16 -37 32 -75 35 -84 11 -35 63
-15 154 59 95 78 110 204 27 241 -34 15 -44 15 -79 -3 -26 -14 -31 -14 -46 0
-19 17 -66 19 -91 5z"/>
<path d="M10528 5806 c-25 -13 -35 -61 -37 -187 -1 -52 3 -69 17 -82 24 -22
55 -21 75 1 21 23 35 218 19 249 -14 26 -44 34 -74 19z"/>
<path d="M4215 5730 c-246 -20 -455 -56 -1105 -195 -278 -59 -531 -105 -581
-105 -18 0 -29 5 -29 14 0 9 7 12 19 9 27 -7 32 20 10 56 -45 74 -135 10 -103
-74 10 -24 58 -45 107 -45 56 0 366 58 818 154 597 125 774 149 1119 150 222
0 564 -24 732 -51 34 -5 38 -3 38 15 0 27 -7 28 -288 52 -277 24 -585 32 -737
20z"/>
<path d="M7125 5729 c-213 -14 -485 -45 -498 -58 -28 -28 11 -31 193 -11 269
28 558 43 695 36 314 -17 478 -43 1060 -166 727 -154 788 -162 838 -116 37 35
44 72 20 104 -28 38 -48 38 -84 3 -34 -35 -35 -64 -1 -69 30 -5 28 -22 -4 -22
-55 0 -302 44 -569 101 -944 202 -1165 229 -1650 198z"/>
<path d="M1215 5580 c-16 -17 -17 -32 -11 -115 3 -52 11 -106 16 -120 18 -46
76 -50 99 -7 6 11 5 57 -3 126 -9 86 -16 111 -31 122 -26 19 -49 17 -70 -6z"/>
<path d="M10481 5323 c-16 -14 -24 -42 -36 -120 -9 -57 -13 -112 -10 -124 13
-39 76 -45 96 -7 10 18 38 174 39 211 0 20 -34 57 -54 57 -8 0 -23 -8 -35 -17z"/>
<path d="M1276 5104 c-20 -19 -20 -38 3 -148 21 -101 43 -133 85 -122 44 11
48 33 24 151 -12 59 -28 113 -35 121 -19 19 -58 18 -77 -2z"/>
<path d="M10381 4843 c-5 -10 -21 -62 -35 -116 -25 -92 -26 -101 -11 -123 17
-26 65 -33 83 -11 6 6 23 58 38 114 33 124 27 153 -30 153 -23 0 -38 -6 -45
-17z"/>
<path d="M1403 4649 c-37 -13 -37 -44 -2 -155 34 -111 50 -131 95 -120 45 12
48 37 13 149 -18 56 -36 107 -41 113 -12 17 -40 22 -65 13z"/>
<path d="M10253 4392 c-14 -9 -83 -189 -83 -218 0 -11 9 -29 20 -39 16 -15 26
-17 48 -9 22 8 33 25 60 94 41 102 49 145 32 165 -13 16 -57 20 -77 7z"/>
<path d="M1546 4184 c-24 -23 -19 -50 27 -154 34 -75 48 -97 69 -104 33 -12
68 14 68 49 0 26 -66 183 -88 208 -19 21 -55 22 -76 1z"/>
<path d="M10074 3952 c-18 -11 -104 -189 -104 -215 0 -54 65 -66 99 -18 28 39
91 172 91 192 0 34 -56 61 -86 41z"/>
<path d="M1758 3753 c-8 -10 -18 -24 -22 -31 -7 -12 71 -169 102 -204 22 -26
68 -23 87 6 18 27 16 32 -43 139 -58 102 -92 127 -124 90z"/>
<path d="M9816 3493 c-101 -139 -116 -192 -60 -213 38 -15 56 0 118 98 60 96
66 120 38 145 -32 29 -59 21 -96 -30z"/>
<path d="M2013 3350 c-27 -11 -37 -43 -22 -72 29 -56 120 -176 137 -180 29 -8
61 9 68 37 5 22 -4 42 -52 112 -52 75 -88 114 -104 112 -3 0 -15 -4 -27 -9z"/>
<path d="M4975 3128 c-4 -10 -14 -14 -26 -11 -33 9 -67 -17 -94 -71 -14 -27
-25 -55 -25 -62 0 -18 29 -44 48 -44 13 0 13 2 -3 14 -17 12 -18 18 -6 55 16
54 65 111 81 94 18 -17 2 -89 -28 -126 -21 -26 -22 -28 -4 -13 l22 19 -11 -34
c-5 -19 -14 -41 -18 -49 -5 -9 -12 -30 -15 -47 -9 -38 -30 -58 -53 -49 -17 7
-17 6 -2 -9 26 -26 55 -10 76 40 14 34 23 45 41 45 15 0 22 -6 22 -19 0 -11 7
-27 16 -35 20 -21 41 -21 24 -1 -16 19 -6 72 20 105 17 21 21 23 30 10 5 -8
10 -10 10 -4 0 5 -5 15 -11 21 -16 16 -52 -2 -73 -38 -19 -32 -63 -42 -51 -11
3 9 18 61 32 115 18 71 22 102 14 110 -7 7 -12 6 -16 -5z"/>
<path d="M9501 3049 c-39 -50 -71 -97 -71 -105 0 -20 37 -54 58 -54 10 0 25 6
34 13 32 25 138 169 138 187 0 27 -27 50 -59 50 -24 0 -40 -15 -100 -91z"/>
<path d="M6166 3114 c-30 -30 -29 -61 3 -130 36 -77 39 -121 10 -158 -26 -33
-6 -34 26 -1 33 32 32 71 -5 155 -35 80 -37 103 -10 130 15 15 16 20 6 20 -8
0 -22 -7 -30 -16z"/>
<path d="M6243 3107 c12 -13 24 -22 26 -20 6 4 -30 43 -40 43 -5 0 2 -10 14
-23z"/>
<path d="M6303 3004 c-9 -25 13 -40 26 -16 10 19 6 32 -11 32 -5 0 -11 -7 -15
-16z"/>
<path d="M6583 3004 c-9 -25 13 -40 26 -16 10 19 6 32 -11 32 -5 0 -11 -7 -15
-16z"/>
<path d="M6947 3000 c-6 -24 12 -38 24 -19 10 16 7 31 -8 36 -6 2 -13 -5 -16
-17z"/>
<path d="M5505 2970 c-5 -15 -12 -18 -35 -13 -25 5 -32 1 -47 -26 -21 -36 -27
-38 -46 -11 -13 18 -15 19 -21 5 -8 -22 -7 -33 2 -18 8 13 46 -14 48 -34 3
-35 5 -41 18 -46 8 -3 22 1 33 9 16 12 16 13 1 8 -15 -5 -18 0 -18 28 0 37 26
82 42 72 6 -4 7 -19 3 -38 -17 -73 7 -148 37 -118 9 9 9 12 0 12 -17 0 -15 56
3 118 15 50 14 72 -5 72 -5 0 -11 -9 -15 -20z"/>
<path d="M5933 2972 c-4 -17 -11 -20 -32 -16 -31 6 -43 -5 -65 -58 -14 -33
-14 -37 5 -56 20 -23 44 -20 53 5 5 13 4 14 -8 4 -20 -17 -26 -1 -16 43 10 47
25 65 41 49 8 -8 9 -20 1 -42 -6 -16 -9 -38 -7 -48 13 -63 17 -73 30 -73 8 0
19 9 25 19 15 29 12 38 -5 15 -13 -18 -14 -16 -15 22 0 22 6 62 14 87 12 40
12 48 -1 58 -11 10 -15 8 -20 -9z"/>
<path d="M6351 2953 c-6 -21 -11 -45 -11 -53 0 -8 -12 -28 -26 -45 l-25 -30 5
45 c3 25 6 54 8 64 5 32 -20 29 -27 -3 -4 -17 -14 -35 -23 -41 -10 -5 -12 -10
-4 -10 6 0 12 -11 12 -25 0 -38 29 -44 57 -11 l23 27 0 -25 c0 -14 4 -26 9
-26 16 0 37 155 22 165 -6 3 -15 -11 -20 -32z"/>
<path d="M5645 2970 c3 -5 -2 -34 -10 -65 -9 -31 -14 -63 -11 -71 7 -19 31
-18 47 4 13 16 13 16 -5 2 -18 -14 -19 -13 -13 15 4 17 10 51 13 78 6 40 4 47
-10 47 -10 0 -14 -4 -11 -10z"/>
<path d="M5785 2970 c3 -5 -2 -34 -10 -65 -9 -31 -14 -63 -11 -71 7 -19 31
-18 47 4 13 16 13 16 -5 2 -18 -14 -19 -13 -13 15 4 17 10 51 13 78 6 40 4 47
-10 47 -10 0 -14 -4 -11 -10z"/>
<path d="M6399 2963 c-13 -16 -12 -17 3 -5 16 13 16 11 8 -20 -14 -47 -12 -68
5 -68 8 0 15 8 15 18 0 10 8 28 17 41 9 14 11 21 5 17 -8 -5 -12 0 -12 13 0
26 -23 27 -41 4z"/>
<path d="M6478 2973 c-2 -4 -4 -35 -3 -68 0 -45 4 -60 15 -62 12 -3 15 9 15
63 0 42 -4 69 -12 71 -6 2 -13 0 -15 -4z"/>
<path d="M6834 2958 c-19 -23 -19 -23 2 -5 31 26 33 22 18 -30 -20 -67 -19
-103 5 -103 10 0 26 10 34 23 l16 22 0 -22 c1 -33 26 -28 27 5 0 15 4 47 9 71
11 57 -13 53 -30 -6 -13 -44 -39 -86 -47 -77 -3 3 1 30 9 61 8 30 12 62 9 69
-8 21 -30 17 -52 -8z"/>
<path d="M2284 2945 c-21 -33 -15 -46 60 -130 74 -84 98 -100 125 -85 11 6 26
20 32 31 13 25 2 43 -90 147 -63 71 -98 81 -127 37z"/>
<path d="M5267 2963 c-4 -3 -7 -21 -7 -39 0 -23 -5 -34 -17 -37 -17 -4 -17 -5
0 -6 9 0 17 -7 17 -14 0 -26 26 -51 46 -43 18 7 18 8 2 17 -14 8 -18 23 -18
69 0 55 -6 70 -23 53z"/>
<path d="M5557 2919 c-4 -32 -2 -60 5 -73 11 -20 12 -19 18 14 3 20 10 42 15
49 6 10 4 12 -4 6 -9 -5 -12 0 -9 21 1 15 -2 29 -8 31 -7 2 -14 -17 -17 -48z"/>
<path d="M5700 2941 c0 -16 -4 -41 -10 -56 -5 -14 -6 -24 -1 -21 5 3 12 -4 16
-17 6 -20 8 -18 14 13 4 20 11 42 16 49 6 10 4 12 -4 6 -9 -5 -12 0 -9 21 2
15 -2 29 -9 31 -9 3 -13 -6 -13 -26z"/>
<path d="M6777 2963 c-4 -3 -7 -21 -7 -40 0 -20 -5 -33 -12 -33 -9 0 -10 -2
-2 -8 7 -4 13 -16 15 -26 7 -36 27 -28 30 11 8 75 -3 117 -24 96z"/>
<path d="M5115 2913 c-14 -26 -23 -44 -19 -40 4 4 12 -3 18 -16 16 -32 51 -34
71 -3 16 24 16 27 0 42 -9 9 -14 23 -11 31 3 8 6 17 6 19 0 3 5 2 12 -2 7 -4
8 -3 4 4 -4 7 -18 12 -31 12 -17 0 -30 -12 -50 -47z m64 -55 c-17 -31 -39 -22
-39 15 0 44 9 51 30 24 13 -16 15 -27 9 -39z"/>
<path d="M5609 2943 c-13 -16 -12 -17 4 -4 16 13 21 21 13 21 -2 0 -10 -8 -17
-17z"/>
<path d="M5749 2943 c-13 -16 -12 -17 4 -4 16 13 21 21 13 21 -2 0 -10 -8 -17
-17z"/>
<path d="M6550 2917 c-28 -75 5 -126 47 -73 19 23 20 23 31 5 15 -24 45 -25
63 -1 13 15 12 16 -3 4 -23 -18 -38 -7 -38 27 0 40 9 43 36 13 13 -15 24 -21
24 -14 0 6 -4 12 -10 12 -5 0 -10 14 -10 31 0 20 4 28 12 23 7 -4 8 -3 4 4
-11 18 -41 14 -57 -5 -8 -10 -23 -35 -33 -56 -11 -20 -26 -43 -34 -50 -15 -12
-15 -3 0 97 6 37 -17 25 -32 -17z"/>
<path d="M6711 2914 c0 -11 3 -14 6 -6 3 7 2 16 -1 19 -3 4 -6 -2 -5 -13z"/>
<path d="M4844 2858 l-19 -23 25 20 c14 11 27 21 29 22 2 2 0 3 -6 3 -5 0 -18
-10 -29 -22z"/>
<path d="M6145 2850 c-15 -16 -16 -23 -6 -33 10 -9 11 -9 6 4 -4 11 2 23 17
33 12 9 18 16 12 16 -6 0 -19 -9 -29 -20z"/>
<path d="M5069 2843 c-13 -16 -12 -17 4 -4 9 7 17 15 17 17 0 8 -8 3 -21 -13z"/>
<path d="M9192 2697 c-49 -49 -82 -91 -82 -103 0 -32 24 -56 56 -56 23 0 44
15 106 82 43 46 78 91 78 101 0 24 -34 59 -58 59 -9 0 -54 -37 -100 -83z"/>
<path d="M2617 2602 c-30 -33 -20 -57 53 -125 94 -89 113 -101 139 -87 29 15
44 46 32 68 -5 10 -44 51 -85 90 -80 76 -109 87 -139 54z"/>
<path d="M8833 2368 c-87 -73 -100 -100 -67 -132 29 -30 60 -18 148 55 70 57
86 75 86 98 0 35 -17 51 -54 50 -23 0 -52 -19 -113 -71z"/>
<path d="M2976 2284 c-19 -19 -20 -45 -3 -66 20 -25 177 -138 193 -138 20 0
54 37 54 58 0 25 -7 31 -96 100 -84 65 -119 75 -148 46z"/>
<path d="M5144 2260 c-27 -11 -48 -62 -39 -97 3 -15 22 -52 41 -83 19 -30 34
-68 34 -83 0 -31 -23 -45 -44 -28 -22 19 -31 -7 -10 -30 22 -25 59 -24 84 1
33 33 27 95 -15 160 -49 78 -45 145 7 119 22 -12 35 9 17 26 -20 19 -51 25
-75 15z"/>
<path d="M5984 2256 c-43 -19 -61 -66 -26 -66 11 0 24 12 30 26 9 18 19 24 35
22 18 -2 23 -10 25 -40 3 -31 -3 -44 -36 -80 -63 -70 -72 -88 -72 -145 l0 -53
81 0 c78 0 80 1 77 23 -3 20 -9 22 -65 25 -54 3 -63 6 -63 22 0 11 28 49 62
86 54 58 63 71 63 105 0 64 -53 100 -111 75z"/>
<path d="M6209 2255 c-59 -32 -80 -189 -36 -275 50 -100 132 -69 158 61 27
134 -43 257 -122 214z m60 -46 c15 -44 14 -208 -2 -239 -32 -64 -66 -2 -66
123 -1 121 41 193 68 116z"/>
<path d="M6399 2248 c-9 -16 -9 -23 0 -26 7 -2 11 -50 11 -153 0 -142 1 -149
20 -149 19 0 20 7 20 175 0 167 -1 175 -20 175 -10 0 -25 -10 -31 -22z"/>
<path d="M6565 2260 c-41 -16 -60 -49 -60 -105 0 -43 5 -59 25 -80 22 -23 31
-26 69 -22 l43 5 -5 -39 c-6 -49 -22 -69 -53 -69 -19 0 -26 7 -30 30 -5 24
-12 30 -31 30 -21 0 -23 -4 -18 -22 15 -53 79 -83 126 -58 75 41 87 261 17
317 -20 16 -61 22 -83 13z m59 -42 c30 -43 11 -148 -26 -148 -29 0 -48 34 -48
83 0 76 41 112 74 65z"/>
<path d="M5277 2193 c-4 -3 -7 -66 -7 -140 l0 -133 25 0 25 0 0 140 c0 129 -1
140 -18 140 -10 0 -22 -3 -25 -7z"/>
<path d="M5373 2178 c4 -12 7 -76 7 -140 0 -138 18 -162 22 -30 l3 87 31 -85
c20 -54 37 -86 48 -88 14 -3 16 12 16 137 0 87 -4 141 -10 141 -6 0 -10 -36
-10 -87 l-1 -88 -33 85 c-27 69 -37 86 -56 88 -20 3 -22 0 -17 -20z"/>
<path d="M5603 2190 c-39 -16 -56 -55 -56 -128 0 -71 19 -125 48 -136 32 -12
65 -7 65 10 0 10 -6 14 -15 10 -28 -10 -45 34 -45 114 0 83 15 118 44 107 13
-5 17 -2 14 10 -4 21 -24 26 -55 13z"/>
<path d="M5700 2060 l0 -140 50 0 c28 0 50 5 50 10 0 6 -11 10 -25 10 -24 0
-25 2 -25 64 0 57 2 64 23 71 l22 8 -22 4 c-19 4 -23 11 -23 43 0 32 4 39 22
42 12 2 23 9 26 16 2 8 -11 12 -47 12 l-51 0 0 -140z"/>
<path d="M8457 2085 c-78 -53 -97 -70 -97 -89 0 -32 25 -56 57 -56 14 0 63 26
114 61 82 57 89 64 89 95 0 33 -20 54 -52 54 -7 0 -57 -29 -111 -65z"/>
<path d="M3370 2010 c-25 -25 -25 -42 -2 -68 19 -23 179 -122 196 -122 39 0
69 55 48 86 -11 18 -188 124 -206 124 -9 0 -25 -9 -36 -20z"/>
<path d="M8045 1840 c-49 -27 -94 -58 -99 -69 -13 -29 17 -71 50 -71 35 0 191
86 211 116 14 22 14 26 -1 49 -24 37 -58 31 -161 -25z"/>
<path d="M3785 1770 c-12 -13 -15 -27 -11 -45 5 -21 27 -36 111 -77 92 -44
109 -50 130 -40 30 14 43 56 24 79 -19 22 -187 103 -214 103 -12 0 -30 -9 -40
-20z"/>
<path d="M7616 1641 c-99 -41 -126 -67 -108 -105 6 -14 20 -27 31 -31 31 -9
210 65 235 98 18 24 18 27 2 51 -22 35 -51 33 -160 -13z"/>
<path d="M4227 1582 c-22 -24 -21 -48 2 -71 25 -25 205 -84 231 -76 43 14 49
74 10 95 -34 18 -188 70 -208 70 -10 0 -26 -8 -35 -18z"/>
<path d="M7177 1490 c-54 -16 -105 -34 -112 -40 -36 -30 -12 -93 36 -92 31 0
200 50 216 64 21 17 16 65 -9 82 -27 19 -12 21 -131 -14z"/>
<path d="M4693 1445 c-27 -19 -30 -57 -8 -79 16 -16 41 -24 154 -50 75 -16
107 -9 117 28 11 46 -9 62 -108 85 -51 12 -102 24 -113 27 -11 2 -30 -2 -42
-11z"/>
<path d="M6703 1380 c-51 -9 -99 -23 -108 -30 -23 -19 -16 -72 13 -86 35 -17
221 18 245 47 22 28 22 44 -3 69 -23 23 -25 23 -147 0z"/>
<path d="M5157 1342 c-24 -26 -21 -59 6 -76 24 -15 141 -36 204 -36 46 0 63
14 63 51 0 40 -21 51 -123 65 -121 17 -131 17 -150 -4z"/>
<path d="M6213 1320 c-46 -4 -90 -13 -98 -20 -25 -20 -15 -72 15 -86 30 -13
207 -2 239 15 27 15 28 62 3 84 -20 18 -29 18 -159 7z"/>
<path d="M5632 1298 c-20 -20 -14 -65 10 -82 26 -19 217 -23 249 -6 25 14 25
61 1 83 -15 14 -41 17 -133 17 -76 0 -119 -4 -127 -12z"/>
</g>
</svg>
